<svg width="17" height="9" viewBox="0 0 17 9" fill="none" xmlns="http://www.w3.org/2000/svg">
<path fill-rule="evenodd" clip-rule="evenodd" d="M17 0H0V9C2 9 3.125 8 4.25 7C5.375 6 6.5 5 8.5 5C10.5 5 11.625 6 12.75 7C13.875 8 15 9 17 9V0Z" fill="white"/>
<path fill-rule="evenodd" clip-rule="evenodd" d="M12.75 7C13.1407 7.3473 13.5314 7.69459 13.9588 8C14.762 8.57398 15.6946 9 17 9V8C15.4123 8 14.5409 7.25394 13.4144 6.25259L13.3707 6.21375C12.2551 5.22174 10.8811 4 8.5 4C6.11887 4 4.74492 5.22174 3.62933 6.21375L3.58564 6.25259C2.45911 7.25394 1.5877 8 0 8V9C1.30541 9 2.23804 8.57398 3.04122 8C3.46858 7.69459 3.85929 7.3473 4.25 7C5.375 6 6.5 5 8.5 5C10.5 5 11.625 6 12.75 7Z" fill="#E6E7EB"/>
</svg>
